#!OML:ASF F:\VICON\USERDATA\INSTALL\rory3\rory3.ASF
:FULLY-SPECIFIED
:DEGREES
57
root -0.8979656307952761 17.75393899880581 17.831668104868903 4.75500320798102 0.354188953042894 3.5054808578463126
lfemur 13.68937799180621 -2.234671449463435 -28.434702399194656
ltibia 17.729837183622905
lfoot -19.606755386509036 2.024595764373016
ltoes -15.197161209206168
rfemur -51.08355500655291 -7.182542556143927 18.852080675816172
rtibia 154.9941844580864
rfoot 12.292301472725562 -1.00113792715808
rtoes 25.26138243132137
lowerback 1.0 0.4768533912168263 -4.706079870075256
upperback -0.3162683327368812 -0.012411004617088883 0.2705310384116857
thorax -8.053188108227522 -0.6206025221671873 2.83917158110984
lowerneck -21.43144885106647 -2.3934555732471834 -1.5619138211099128
upperneck 11.791749129507082 -3.46747318767862 4.548365260017697
head 7.744496786675782 -1.3892360053216164 0.9169524870008009
lclavicle 1.1758525485586665e-14 2.4121117791167228e-14
lhumerus -32.485264005759554 -12.226842743950536 90.723965643486
lradius 141.4917472327708
lwrist 35.38971165498645
lhand -29.81233137453548 -8.194442301707447
lfingers nan
lthumb -2.038544499261805 24.179308568236266
rclavicle 1.6546923931113003e-14 2.7184862583687028e-14
rhumerus -69.18824722586544 10.663753855979452 -97.3367578794624
rradius 78.13390997405651
rwrist -18.61389303371476
rhand -22.210594295353864 1.0
rfingers nan
rthumb 4.667059331616839 10.992257556427765
58
root -0.864330546571691 17.841753668446124 19.02190483235273 4.552478641021324 0.25523132070779075 3.3309825320476047
lfemur 15.086516844663933 -2.3307111698220044 -28.07739050832069
ltibia 15.86360237927203
lfoot -15.418391752225242 -0.2542908840300431
ltoes -16.357570680795497
rfemur -50.321473306676005 -6.589663530469583 19.19256706231386
rtibia 150.26681338530943
rfoot 10.908395471595838 -0.9031274772169686
rtoes 22.767570654012456
lowerback 1.0 0.3633720256023303 -4.435698127647719
upperback -0.43879410717032474 -0.1539587940266376 0.3791379677361775
thorax -8.194476170454665 -0.6832551151332372 2.7701024632274738
lowerneck -20.658152075045983 -2.2450264085941343 -1.5571732271441339
upperneck 12.285778812274321 -3.354406145468919 4.45032305742057
head 7.787428486428873 -1.3310883987867086 0.907868403687481
lclavicle 1.3634391192185059e-14 1.0515612546865472e-14
lhumerus -32.76305260665046 -12.327176562254078 90.26309741014803
lradius 142.69579692595113
lwrist 35.832907552354655
lhand -29.979553127544914 -8.345546335982078
lfingers nan
lthumb -2.180926586807614 24.068258048657707
rclavicle 1.8805060551201753e-14 1.3727396972299279e-14
rhumerus -69.87859886539522 10.535903518114413 -97.18300138904748
rradius 78.93530693342352
rwrist -18.3658223056568
rhand -22.149977935953228 1.0
rfingers nan
rthumb 4.746000375378523 11.40635214630996
59
root -0.8401550620349524 17.91198491760512 18.90767776772137 4.408494783601435 -0.14777222419187575 2.922326894011746
lfemur 15.856694279512944 -2.3194000834005877 -27.71165105010312
ltibia 13.790088474391212
lfoot -10.567759146006312 -3.0983724145362084
ltoes -16.220632454193293
rfemur -50.20529036360273 -5.992513378469365 19.479814130349034
rtibia 145.30159124852614
rfoot 9.972463579708885 -0.9592634759171013
rtoes 20.039417427171077
lowerback 1.0 0.2759134591141551 -4.149817375383707
upperback -0.6405924429990131 -0.1961318029654271 0.5531893803443315
thorax -8.45429202352253 -0.7085674510948646 2.7830316505414214
lowerneck -19.28348751683511 -2.0918952720810857 -1.6137587031111382
upperneck 12.229459173875197 -3.204997036928743 4.417139839888407
head 7.597473495588471 -1.2632874129285367 0.9226198052356882
lclavicle 2.921695515467575e-14 2.605246974489805e-14
lhumerus -33.271507654339324 -12.405850184340794 89.89345464384134
lradius 143.6606035933636
lwrist 35.690121603317564
lhand -29.736559255904996 -8.65361186076006
lfingers nan
lthumb -1.9255325061740707 23.776810276317033
rclavicle 3.456935239502426e-14 2.937651202407437e-14
rhumerus -70.847979156215 10.384849466383079 -96.96775739666471
rradius 79.94146397472663
rwrist -18.006614507678535
rhand -22.316742689902732 1.0
rfingers nan
rthumb 4.588411114772959 11.875340596573764
60
root -0.8401698700825986 17.93385090105597 19.065412875025345 4.167762674885093 -0.7639604086686991 2.7536167821700337
lfemur 16.422445761990993 -2.084695917334642 -27.480308153224236
ltibia 11.68253775252974
lfoot -4.651522100941791 -6.086824362173266
ltoes -14.582489665946193
rfemur -49.96543065194553 -5.376332769046501 19.607421208441334
rtibia 140.31577809859067
rfoot 9.532714260599137 -0.9842471562082347
rtoes 18.72327432365929
lowerback 1.0 0.3085178180970123 -4.0778772437488
upperback -0.6916336493228095 -0.1873425034880738 0.6970470007062312
thorax -8.522153394981807 -0.6950135927333229 2.898450807993944
lowerneck -18.028726979928145 -1.9391688577315165 -1.6148225548848356
upperneck 12.027108329267042 -3.0504180069467117 4.2796799994624966
head 7.365009901271525 -1.2016602020132217 0.9083118819806544
lclavicle -1.796691478808878e-15 -3.9522521226951384e-15
lhumerus -33.56588394123193 -12.488446997088253 89.58237436694581
lradius 144.07560630424837
lwrist 35.28339359076672
lhand -28.829393458974103 -9.344993419440735
lfingers nan
lthumb -1.0131397989208313 23.11580268424663
rclavicle 3.728780772624478e-15 -2.568995067949061e-16
rhumerus -71.62820937540612 10.076267286861052 -96.57823539725543
rradius 80.80314892757428
rwrist -17.500883737166184
rhand -22.439201305139626 1.0
rfingers nan
rthumb 4.4514976960530745 12.04256974616005
61
root -0.8125569366679519 17.98111917058235 20.790788217383206 4.085976575134572 -1.534306181765975 2.606226925714291
lfemur 16.762521243770095 -1.6844596414528992 -27.37750757932631
ltibia 9.452901097030058
lfoot 2.3598668053364285 -8.965031422505216
ltoes -17.050973145896474
rfemur -49.579153489240724 -4.470278645350561 19.713643740336583
rtibia 135.09732562802654
rfoot 8.981012377210325 -1.1215098809247381
rtoes 18.916682878292967
lowerback 1.0 0.3976476005893264 -4.09817919870338
upperback -0.7606040365825604 -0.064694562719815 0.7876007030432295
thorax -8.41913278022516 -0.6489797148963047 2.9293055897579565
lowerneck -16.8800955747663 -1.9271853167045823 -1.5126786958221274
upperneck 12.214766783129976 -3.032286604111825 4.0553138299753995
head 7.255649917523884 -1.2126229496772432 0.8530691514607369
lclavicle 2.2983890054046142e-14 1.9895421662159185e-14
lhumerus -33.83359492276452 -12.568686075588435 89.30254713109456
lradius 144.18287308961146
lwrist 34.96003643647398
lhand -28.055884501126073 -9.742781415457129
lfingers nan
lthumb -0.22703178162528337 22.74370936135422
rclavicle 2.8350241052445314e-14 2.345705624134401e-14
rhumerus -72.1216062608251 9.700451817893018 -96.18099302823626
rradius 81.38441594361046
rwrist -17.28117975523507
rhand -22.573396992310254 1.0
rfingers nan
rthumb 4.2950764249694 12.283932074500678
62
root -0.7840595764219274 17.990498569064904 21.201118815166197 4.03718451799753 -2.2651604490904553 1.9967979847381334
lfemur 17.513802356749835 -1.6024753013327548 -26.922332134494617
ltibia 7.220432620211355
lfoot 10.006570787546664 -10.732529839082764
ltoes -16.61787066201147
rfemur -49.151366131091265 -3.6721169567768537 20.239930970827345
rtibia 129.58621835818715
rfoot 8.077656614296188 -1.7824748149642353
rtoes 18.051576301035393
lowerback 1.0 0.4314408495111038 -3.5330331814608495
upperback -0.9537690540350878 0.0518572846066685 0.9707618566977791
thorax -8.369185350750785 -0.6135823781376378 2.8239153272924535
lowerneck -15.268951277762692 -2.020012023856479 -1.5556898015853027
upperneck 12.285031370468158 -3.010624434229089 3.912134530054732
head 7.064890964950842 -1.2299991641264334 0.8268707801504626
lclavicle 2.245467786451318e-15 1.953589670416707e-14
lhumerus -34.351983241060964 -12.60726486340546 89.19196598944217
lradius 144.34577723783343
lwrist 34.55393468906111
lhand -27.337339670532227 -10.383880918654011
lfingers nan
lthumb 0.505080963941436 22.133640994533344
rclavicle 7.984942796420477e-15 2.3126088535916476e-14
rhumerus -72.8009328037268 9.274700616941017 -95.72971808976858
rradius 82.22299378888655
rwrist -16.96877248534544
rhand -22.420831675640255 1.0
rfingers nan
rthumb 4.430473939807433 12.278500418777625
63
root -0.7494028626090601 18.02452148664404 22.37008994474629 4.009725295229775 -2.5331216453093885 1.5858415206360679
lfemur 18.057335245092588 -1.6871174133565177 -26.524101779815695
ltibia 5.1677704357979195
lfoot 16.906484013959126 -10.638218389022825
ltoes -16.168530780780568
rfemur -48.35805568163897 -3.0364800850120273 20.610901828920532
rtibia 123.8962978880464
rfoot 7.5936744872836055 -2.476728964632146
rtoes 15.389014847682951
lowerback 1.0 0.4077426764093506 -2.8180461988646237
upperback -1.128853407726023 0.07823797601981863 1.091152732266759
thorax -8.43285999647367 -0.6252203742280696 2.6059457149677927
lowerneck -14.978784484788115 -2.201340323872431 -1.6837139258063691
upperneck 12.5148774716522 -2.9814973459353866 3.8945940110238606
head 7.07126335258196 -1.2236667239903773 0.8382976144527656
lclavicle -3.7232349451023684e-14 2.184043029743626e-14
lhumerus -34.69099143413504 -12.65621640537857 89.07587939329467
lradius 144.27810201181165
lwrist 33.89542804027642
lhand -26.2578311659766 -11.188435904785019
lfingers nan
lthumb 1.5754235208933216 21.347929068516084
rclavicle -3.108095633321105e-14 2.5355693367643694e-14
rhumerus -73.22190943367883 8.895502535305733 -95.18213629428999
rradius 83.10799848420339
rwrist -16.364350070415203
rhand -22.468501063137353 1.0
rfingers nan
rthumb 4.370844498063734 12.349931792848144
64
root -0.7053273519448605 18.061777620819882 22.2959349255264 4.068756381211225 -2.849171266684904 1.4217234455113628
lfemur 18.397040509113772 -1.9616727029480767 -26.682817128420638
ltibia 3.620360866522226
lfoot 22.181136743097426 -10.60956092045014
ltoes -13.895462498782072
rfemur -47.43040198083918 -2.6080436916959564 20.549334088903144
rtibia 118.16935748119074
rfoot 7.298640248014704 -2.939370887885306
rtoes 13.818629340084737
lowerback 1.0 0.37413553454575643 -2.5206970377801383
upperback -1.2653604958844256 0.10259056954223467 1.1343266986520315
thorax -8.500497942232228 -0.6168222645581479 2.5118946630818235
lowerneck -15.833633610324007 -2.40174123467038 -1.7883961828188701
upperneck 13.093100163927813 -2.958979808468858 3.813110578063994
head 7.315683725308699 -1.213266513335119 0.8290555478685147
lclavicle 5.0781497780182925e-14 2.2990949789473645e-15
lhumerus -34.96954035432932 -12.708792891592712 88.91019486758837
lradius 143.97917164529025
lwrist 33.3630846666157
lhand -26.316200575427644 -11.672221669073513
lfingers nan
lthumb 1.52061858116612 20.863666589278736
rclavicle 5.62204463713658e-14 5.379790145083264e-15
rhumerus -73.51721297238355 8.459842393666424 -94.59784647450797
rradius 84.11644330852053
rwrist -15.693284953804817
rhand -23.266795650668982 1.0
rfingers nan
rthumb 3.5810192305241197 12.24455045958246
